<?xml version="1.0" standalone="no"?>
<!DOCTYPE svg PUBLIC "-//W3C//DTD SVG 20010904//EN"
 "http://www.w3.org/TR/2001/REC-SVG-20010904/DTD/svg10.dtd">
<svg version="1.0" xmlns="http://www.w3.org/2000/svg"
 width="1280.000000pt" height="808.000000pt" viewBox="0 0 1280.000000 808.000000"
 preserveAspectRatio="xMidYMid meet">
<metadata>
Created by potrace 1.15, written by Peter Selinger 2001-2017
</metadata>
<g transform="translate(0.000000,808.000000) scale(0.100000,-0.100000)"
fill="white" stroke="none">
<path d="M1404 8065 c-4 -9 3 -38 16 -65 19 -40 21 -54 12 -77 -13 -36 -14
-140 -2 -148 13 -8 13 -25 0 -25 -5 0 -12 11 -16 25 -3 13 -12 29 -20 36 -19
15 -18 39 1 39 9 0 15 9 15 25 0 14 -6 25 -12 25 -21 -1 -48 -26 -48 -44 0
-24 -35 -20 -127 13 -96 35 -153 69 -183 110 -31 45 -57 41 -71 -11 -7 -24
-11 -56 -10 -73 1 -16 4 -73 6 -125 5 -125 13 -176 30 -190 22 -18 18 -30 -10
-30 -21 0 -25 -5 -25 -30 0 -17 7 -33 17 -39 14 -8 15 -13 5 -35 -7 -16 -20
-26 -32 -26 -23 0 -27 -28 -9 -62 8 -15 8 -22 0 -27 -6 -4 -28 -59 -50 -122
-21 -63 -47 -132 -59 -154 -11 -23 -36 -86 -55 -140 -50 -142 -109 -262 -195
-399 l-75 -118 -3 -147 c-1 -80 -7 -162 -13 -181 -6 -19 -11 -53 -11 -76 0
-58 -58 -185 -104 -228 -21 -20 -44 -56 -53 -82 -15 -45 -15 -46 18 -112 29
-57 34 -76 34 -136 0 -39 -6 -84 -12 -101 -6 -16 -16 -54 -21 -82 -8 -48 -6
-58 20 -105 58 -109 71 -144 76 -208 4 -58 8 -69 40 -102 l36 -37 -12 -52
c-27 -114 -3 -216 57 -246 14 -6 28 -18 33 -26 11 -21 -8 -68 -31 -74 -38 -10
-42 -90 -7 -136 14 -18 37 -71 52 -117 14 -47 44 -115 65 -151 22 -36 39 -71
39 -77 0 -7 5 -21 12 -32 10 -15 8 -35 -8 -103 -19 -78 -19 -86 -5 -105 9 -11
34 -23 56 -27 22 -4 62 -18 88 -31 27 -13 59 -24 71 -24 27 0 44 -18 82 -88
29 -56 56 -76 116 -87 28 -5 39 -14 49 -37 10 -24 10 -31 -1 -38 -36 -22 53
-51 97 -31 22 10 29 9 48 -9 13 -12 35 -45 50 -73 23 -43 28 -69 33 -149 l5
-98 31 -5 c74 -13 377 -54 441 -60 39 -3 83 -9 99 -12 24 -4 27 -7 13 -15 -9
-5 -17 -19 -17 -31 0 -18 25 -36 133 -96 72 -41 177 -102 232 -136 313 -194
502 -299 560 -312 51 -11 161 -25 616 -79 53 -6 56 -5 62 17 4 13 7 38 7 54 1
61 -2 60 224 38 193 -18 206 -21 225 -44 11 -13 23 -36 26 -50 4 -16 18 -32
41 -42 19 -9 38 -26 42 -37 12 -33 126 -158 149 -164 26 -7 83 -60 83 -76 0
-6 11 -33 25 -60 18 -35 25 -65 25 -105 0 -32 7 -70 16 -88 25 -48 114 -140
155 -158 19 -9 47 -28 62 -43 14 -14 52 -38 84 -52 l57 -27 41 45 c22 25 46
58 53 74 44 94 46 97 100 117 51 19 55 19 82 4 15 -10 46 -17 68 -17 21 0 64
-4 93 -10 43 -8 59 -16 79 -42 13 -18 46 -53 71 -78 45 -43 89 -111 89 -136 0
-7 16 -49 35 -94 19 -45 35 -90 35 -101 0 -10 13 -25 30 -34 16 -8 39 -34 51
-58 32 -62 66 -103 105 -126 32 -19 33 -22 28 -66 -5 -33 -3 -45 6 -45 9 0 11
-11 6 -39 -5 -33 -2 -42 24 -70 17 -17 30 -41 30 -53 0 -12 9 -40 20 -62 16
-33 30 -45 72 -63 29 -12 70 -26 90 -32 21 -5 51 -19 67 -30 20 -14 51 -23 93
-26 49 -4 72 -12 106 -35 48 -34 60 -32 101 16 30 34 30 91 0 165 -10 27 -21
77 -25 112 -9 93 14 161 94 277 74 108 124 147 306 235 61 30 120 68 155 100
31 28 77 66 104 85 26 18 47 37 47 42 0 13 113 66 197 93 108 34 225 35 315 1
83 -32 158 -45 188 -34 15 6 42 4 73 -4 41 -10 50 -10 57 2 13 21 -3 32 -51
36 -53 3 -72 20 -38 33 13 5 29 6 34 2 6 -3 26 -6 45 -6 30 0 37 -5 50 -32 10
-21 22 -33 36 -33 11 0 29 -6 39 -14 16 -12 17 -16 6 -29 -18 -22 -7 -35 56
-63 69 -30 97 -30 125 -2 34 34 69 51 82 38 7 -7 7 -16 -2 -30 -17 -28 -15
-32 11 -25 12 4 36 22 53 40 26 27 28 34 15 42 -12 8 -11 13 9 33 l24 24 6
-23 c4 -16 19 -27 58 -40 28 -10 60 -25 70 -33 31 -27 70 -28 87 -2 8 13 15
27 15 31 0 15 -72 55 -109 60 -20 4 -46 13 -58 20 -26 17 -20 43 9 43 14 0 18
5 14 15 -3 9 0 15 8 15 30 0 40 28 26 70 -7 22 -19 40 -25 40 -15 0 -45 -32
-45 -48 0 -15 -23 -15 -37 -1 -11 11 12 52 55 97 6 8 17 22 23 33 5 11 14 17
19 14 5 -3 32 1 60 9 36 11 58 12 76 6 14 -6 51 -10 83 -10 l58 0 21 51 c12
29 26 48 32 44 6 -3 20 -25 31 -47 l21 -41 -23 -18 -23 -17 25 -4 c13 -2 42 4
64 13 67 29 176 57 243 63 76 7 133 -5 215 -44 96 -46 121 -64 137 -98 12 -24
19 -29 30 -22 8 5 30 10 48 10 40 0 67 13 108 52 18 16 40 28 50 26 14 -2 19
3 19 20 1 44 49 54 126 24 26 -9 60 -32 77 -50 16 -17 35 -32 41 -32 6 0 13
-11 17 -25 3 -13 14 -27 25 -30 10 -4 27 -17 37 -30 11 -14 40 -30 66 -37 38
-10 50 -19 63 -45 8 -18 21 -37 29 -44 17 -14 19 -120 2 -182 -10 -37 -8 -53
11 -115 24 -80 42 -91 59 -36 8 28 8 36 -4 41 -26 10 -15 21 14 14 38 -10 38
-29 -2 -85 l-35 -49 40 -46 c41 -48 91 -124 134 -203 26 -49 41 -58 64 -35 10
10 17 6 36 -18 14 -16 27 -43 31 -60 4 -16 15 -42 25 -57 16 -22 25 -26 53
-21 60 9 116 -48 140 -144 16 -62 36 -74 75 -45 17 12 43 22 59 22 16 0 41 9
56 21 34 27 33 12 -3 -37 -35 -48 -74 -84 -125 -114 -31 -19 -35 -25 -22 -32
12 -7 33 5 86 47 39 31 77 66 84 78 25 37 58 136 54 159 -3 22 -4 22 -21 -7
l-17 -30 2 45 c2 28 9 50 20 58 15 11 17 26 12 110 -10 191 -21 234 -95 367
-37 66 -78 134 -92 151 -14 17 -35 54 -47 84 -18 46 -19 55 -6 69 19 21 11 36
-68 115 -83 85 -184 263 -237 416 -45 135 -48 182 -18 296 12 43 21 90 20 103
0 13 8 38 19 56 11 18 20 41 20 52 0 10 21 39 46 63 33 33 44 51 41 68 -3 16
1 22 12 22 21 0 135 111 168 162 13 21 30 38 38 38 9 0 20 11 25 25 5 14 14
25 20 25 5 0 10 13 10 28 0 63 31 136 79 184 43 43 52 47 110 54 34 4 64 12
66 18 2 6 11 38 20 70 13 48 27 70 74 116 66 67 130 103 181 102 35 -1 39 3
73 61 37 62 41 82 10 55 -12 -10 -31 -14 -55 -11 l-36 5 13 39 c8 22 11 47 8
56 -4 11 -3 14 5 9 7 -4 28 -2 47 4 25 8 37 20 47 46 7 19 22 41 35 49 15 11
23 25 23 45 0 40 18 38 36 -5 15 -36 19 -115 7 -115 -15 -1 -98 -79 -91 -85 4
-4 24 6 45 22 21 17 49 36 62 43 21 11 23 17 18 65 -6 63 -28 107 -74 155 -19
19 -57 81 -85 138 -28 56 -57 107 -64 113 -9 7 -24 7 -50 0 -41 -11 -54 -7
-36 11 18 18 15 36 -18 84 -27 40 -28 44 -10 44 21 0 27 24 10 35 -6 4 -8 11
-4 16 3 5 0 16 -6 24 -7 8 -10 26 -7 41 5 27 -14 54 -39 54 -8 0 -14 3 -15 8
0 4 -2 29 -4 55 -2 32 -9 55 -23 70 -36 38 -51 86 -40 125 5 19 7 48 4 63 -7
36 9 81 35 97 19 12 20 12 4 -17 -19 -38 -19 -57 0 -65 17 -6 21 -76 5 -76 -5
0 -10 -17 -10 -37 0 -29 3 -34 12 -25 7 7 16 12 22 12 6 0 5 -5 -2 -12 -27
-27 -3 -96 39 -111 9 -3 21 -26 28 -51 6 -24 16 -48 21 -51 17 -10 22 21 11
61 -14 51 -6 54 29 13 33 -39 36 -59 15 -119 -17 -49 -19 -117 -5 -155 9 -23
13 -25 26 -14 26 21 44 79 44 138 0 38 6 65 17 81 27 38 63 131 63 163 0 50
-32 147 -49 147 -9 0 -23 6 -32 13 -20 16 -63 110 -46 103 6 -3 31 -11 54 -17
39 -12 41 -14 36 -46 -4 -25 -2 -33 9 -33 22 0 36 20 46 67 5 23 19 55 31 71
49 70 64 121 62 227 -1 124 -13 157 -50 148 -26 -6 -26 -6 -7 16 11 11 21 19
23 17 6 -6 98 21 150 44 44 19 184 121 217 158 18 21 18 22 -8 32 -38 14 -41
13 -73 -16 -45 -42 -138 -85 -170 -78 -22 4 -34 -1 -57 -25 -31 -33 -61 -44
-33 -13 10 10 14 22 10 26 -9 9 118 137 129 130 5 -3 14 -1 21 4 7 5 37 17 67
25 88 24 177 61 202 83 13 12 45 31 71 43 36 16 47 26 43 38 -7 18 10 43 30
43 23 0 16 -46 -8 -63 -13 -8 -19 -19 -15 -23 5 -5 30 14 56 42 30 32 64 56
87 64 53 17 58 23 50 63 -8 45 -49 89 -79 85 -30 -4 -29 -34 1 -31 32 4 53
-41 29 -64 -20 -20 -78 -19 -89 1 -28 50 -76 101 -96 101 -39 1 -46 19 -26 70
16 43 16 49 1 74 -14 24 -14 33 -2 73 7 25 16 71 20 102 4 31 11 59 17 62 5 3
6 15 2 26 -9 30 15 70 39 62 26 -8 107 36 107 59 0 10 11 22 24 27 34 13 43
35 40 110 -1 61 -1 64 13 43 9 -13 22 -23 29 -23 22 0 16 -27 -6 -33 -21 -5
-25 -23 -11 -46 13 -20 44 -5 38 18 -3 13 2 21 16 25 17 4 19 11 14 45 -3 28
-1 41 9 45 8 3 11 0 7 -10 -6 -16 14 -44 32 -44 7 0 15 14 19 30 3 17 12 30
20 30 8 0 30 18 49 41 20 22 53 54 75 70 45 33 67 77 58 113 -14 56 -86 110
-99 74 -7 -23 -37 12 -37 44 0 50 -16 68 -60 68 l-39 0 -35 113 c-19 61 -47
154 -62 206 -28 93 -28 94 -74 113 -81 35 -90 34 -142 -16 -50 -49 -74 -52
-84 -10 -10 40 -49 32 -67 -13 -43 -107 -71 -205 -79 -268 -4 -38 -10 -92 -14
-118 -5 -38 -2 -52 11 -67 17 -19 17 -22 -13 -83 -18 -35 -35 -81 -40 -103 -7
-32 -12 -38 -29 -36 -12 2 -24 -2 -28 -8 -3 -6 -11 -8 -16 -4 -18 11 -39 -18
-39 -56 l0 -37 -242 -63 c-134 -34 -268 -66 -298 -71 -140 -21 -196 -59 -269
-185 -19 -32 -57 -82 -85 -111 -45 -48 -49 -54 -38 -77 6 -14 23 -28 36 -32
22 -5 24 -9 15 -26 -8 -14 -7 -28 1 -49 15 -36 8 -56 -21 -61 -13 -2 -36 -22
-54 -48 -28 -40 -37 -46 -79 -52 -26 -3 -59 -14 -73 -23 -20 -14 -30 -15 -50
-6 -39 18 -117 13 -200 -14 -111 -35 -118 -41 -102 -94 7 -23 20 -46 30 -51 9
-5 19 -17 23 -25 15 -40 -149 -203 -319 -317 -66 -44 -142 -102 -169 -129 -27
-27 -61 -52 -75 -55 -14 -3 -49 -14 -76 -25 -64 -24 -87 -24 -110 1 -14 15
-26 19 -55 14 -26 -4 -45 -1 -69 14 -24 15 -43 19 -69 15 -39 -7 -39 -5 4 54
15 19 24 46 24 67 0 25 6 40 20 48 11 7 20 24 20 38 0 35 11 48 40 46 24 -1
25 2 28 66 2 54 -3 86 -27 155 -16 49 -33 104 -36 125 -6 34 -62 108 -81 108
-5 0 -27 -10 -49 -23 -27 -15 -42 -32 -48 -54 -5 -18 -21 -46 -36 -63 -25 -29
-27 -30 -48 -15 -33 23 -32 82 1 94 24 10 36 30 36 62 0 11 9 27 20 36 16 14
20 30 20 87 0 58 -4 74 -25 102 -29 38 -30 44 -10 44 21 0 19 14 -11 57 -21
31 -33 39 -68 44 -24 4 -62 19 -84 33 -23 14 -55 26 -72 26 -17 0 -41 7 -55
16 -26 17 -50 10 -91 -28 -26 -23 -21 -66 10 -78 19 -8 18 -9 -12 -16 -48 -10
-61 -35 -55 -100 5 -46 3 -57 -13 -69 -10 -8 -22 -15 -26 -15 -14 0 -9 46 8
79 20 41 13 66 -16 51 -11 -6 -20 -18 -20 -26 0 -9 -17 -31 -39 -50 -30 -27
-37 -40 -33 -60 3 -19 0 -26 -17 -31 -18 -5 -20 -11 -15 -42 3 -20 0 -56 -7
-81 -7 -25 -13 -79 -14 -120 0 -41 -4 -81 -9 -88 -5 -9 12 -52 45 -120 49 -97
54 -112 52 -167 -2 -78 -41 -211 -72 -249 -8 -9 -33 -30 -57 -46 -42 -28 -45
-28 -78 -15 -27 11 -37 24 -49 60 -9 25 -25 57 -36 72 -16 19 -21 40 -21 85 0
32 -4 78 -9 101 -33 149 -33 152 -11 208 15 41 19 65 13 99 -8 53 -6 70 12 90
10 11 13 36 10 87 -3 66 0 79 36 160 39 89 50 147 27 137 -7 -2 -34 -37 -60
-77 -55 -84 -125 -164 -134 -154 -9 8 24 85 47 112 22 25 65 122 90 202 18 56
22 61 37 52 14 -9 25 -8 48 4 22 11 33 12 47 3 19 -11 24 -7 52 40 8 12 28 18
68 22 38 3 62 11 73 23 20 22 59 24 133 8 38 -8 55 -7 73 2 15 9 60 12 130 11
64 -1 110 2 113 9 4 5 -1 21 -9 34 -17 26 -49 32 -75 16 -12 -8 -12 -12 -2
-25 21 -25 -4 -19 -38 10 -27 22 -31 32 -31 74 0 50 -12 69 -33 52 -18 -14
-123 -36 -141 -29 -11 4 -16 19 -16 47 0 46 -8 49 -72 22 -24 -11 -76 -24
-115 -30 -61 -9 -80 -16 -115 -46 -43 -37 -84 -46 -106 -24 -9 9 -15 9 -24 0
-22 -22 -55 -13 -87 23 -17 20 -31 39 -31 44 0 11 -47 31 -73 31 -13 0 -28 5
-34 11 -7 7 -19 2 -42 -16 -25 -22 -31 -24 -31 -10 0 9 9 28 20 42 11 14 20
32 20 39 0 8 6 14 14 14 8 0 18 9 21 20 4 11 22 27 42 35 30 13 33 17 23 30
-16 19 -41 19 -86 0 -41 -17 -131 -95 -155 -134 -19 -30 -114 -81 -152 -81
-15 0 -30 -8 -36 -19 -16 -28 -80 -55 -138 -56 -29 0 -53 2 -53 5 0 3 9 20 21
39 17 28 18 36 7 47 -11 10 -29 5 -102 -32 -59 -29 -102 -44 -127 -44 -49 0
-49 10 -1 35 44 24 130 106 159 155 35 57 61 75 192 131 84 37 126 60 131 74
9 25 -9 31 -50 16 -26 -8 -31 -7 -41 10 -9 19 -19 20 -86 18 -62 -3 -76 -1
-84 13 -11 20 -32 15 -71 -18 -16 -12 -36 -25 -47 -29 -25 -8 -71 11 -71 29 0
9 -12 16 -27 18 -20 2 -29 9 -31 26 -4 23 -21 29 -38 12 -12 -12 -85 16 -133
49 -41 29 -95 33 -125 10 -29 -23 -76 -26 -76 -4 0 11 -11 15 -39 15 -22 0
-43 5 -46 10 -3 6 -21 10 -39 10 -44 0 -54 14 -71 101 -14 77 -33 102 -70 97
-17 -3 -21 -12 -23 -57 l-3 -54 -527 6 c-531 6 -764 15 -1057 42 -88 9 -259
24 -380 35 -550 51 -1298 160 -1785 261 -107 22 -316 65 -465 95 -312 63 -488
105 -740 173 -99 27 -241 66 -315 86 -74 20 -143 39 -152 42 -11 3 -20 -1 -24
-12z m11181 -1255 c-3 -5 -11 -10 -16 -10 -6 0 -7 5 -4 10 3 6 11 10 16 10 6
0 7 -4 4 -10z m-6148 -5767 c-19 -27 -44 -67 -56 -90 -25 -49 -30 -53 -23 -18
2 14 -1 32 -8 40 -15 19 -5 35 24 35 14 0 34 14 55 40 44 55 50 50 8 -7z
m-110 -316 c1 -47 8 -88 22 -120 21 -48 29 -143 12 -133 -5 4 -12 25 -16 49
-3 23 -15 75 -26 115 -10 40 -16 85 -13 100 8 38 15 62 17 62 1 0 3 -33 4 -73z"/>
<path d="M1290 7978 c0 -10 5 -27 12 -38 12 -18 13 -18 32 -2 18 16 18 16 7
-5 -6 -12 -7 -24 -3 -27 17 -10 41 19 47 56 l7 37 -51 -1 c-42 -1 -51 -4 -51
-20z"/>
<path d="M8122 7120 c-23 -16 -46 -30 -50 -30 -5 0 -17 -9 -27 -20 -14 -16
-16 -23 -7 -32 9 -9 20 -8 46 5 38 18 116 84 116 98 0 18 -38 8 -78 -21z"/>
<path d="M12425 5805 l-30 -25 32 0 c50 0 64 9 52 31 -12 24 -18 24 -54 -6z"/>
<path d="M12295 5800 c-16 -18 -16 -20 -1 -26 18 -7 76 13 76 26 0 9 -25 20
-44 20 -7 0 -21 -9 -31 -20z"/>
<path d="M820 3517 c0 -24 36 -47 73 -47 49 0 47 11 -8 38 -53 26 -65 27 -65
9z"/>
<path d="M749 3501 c11 -20 58 -34 67 -19 10 16 -18 38 -48 38 -25 0 -27 -2
-19 -19z"/>
<path d="M1100 3256 c0 -20 39 -66 56 -66 21 0 17 37 -8 60 -25 23 -48 26 -48
6z"/>
<path d="M1070 3112 c0 -24 28 -62 46 -62 19 0 18 6 -7 46 -23 37 -39 44 -39
16z"/>
<path d="M12 2328 c4 -10 213 -13 994 -15 l989 -2 457 -463 457 -463 1 -379 0
-379 236 -296 c275 -345 261 -328 273 -316 6 6 -82 124 -235 315 l-244 305 0
373 0 372 579 0 579 0 366 -371 366 -372 0 -313 c0 -203 4 -314 10 -314 6 0
10 114 10 323 l0 323 -367 373 -368 372 -591 0 -592 -1 -462 470 -463 470
-999 0 c-795 0 -999 -3 -996 -12z"/>
<path d="M1515 2200 c-15 -16 -30 -20 -64 -19 -28 1 -59 -5 -80 -15 -19 -10
-45 -16 -60 -13 -29 6 -81 -25 -81 -48 0 -8 -15 -28 -32 -45 -31 -29 -36 -30
-91 -24 -44 5 -63 2 -82 -10 l-25 -16 41 -67 c27 -44 42 -80 43 -106 1 -25 9
-44 21 -53 10 -8 21 -26 23 -41 2 -14 10 -39 18 -55 20 -38 13 -44 -33 -30
-61 19 -69 27 -55 56 16 35 -5 50 -60 42 -24 -4 -76 -10 -117 -14 -41 -4 -76
-12 -78 -18 -2 -6 8 -28 23 -49 21 -32 25 -47 20 -81 -4 -36 -2 -44 22 -68 18
-17 39 -26 60 -26 17 0 47 -8 67 -17 30 -14 42 -15 78 -6 45 12 68 3 49 -19
-5 -7 -13 -31 -17 -53 -11 -57 -22 -68 -65 -61 -24 4 -43 1 -56 -9 -27 -20
-51 -18 -57 5 -9 36 -69 24 -92 -19 -7 -15 -36 -42 -63 -61 -42 -28 -51 -40
-56 -72 -6 -39 8 -83 24 -73 4 3 6 -4 3 -16 -3 -11 -12 -23 -19 -26 -18 -7
-17 -33 1 -57 8 -11 15 -30 15 -41 0 -38 33 -58 88 -53 l48 5 1 -38 c1 -24 -3
-39 -13 -43 -8 -3 -14 -19 -14 -40 0 -19 -5 -38 -11 -42 -20 -12 18 -26 40
-14 25 13 71 13 71 0 0 -6 11 -15 24 -19 15 -6 25 -20 30 -41 7 -36 29 -37 34
-2 4 26 20 29 29 6 4 -12 14 -14 42 -9 34 6 35 6 20 -12 -9 -10 -29 -42 -44
-72 -19 -38 -35 -57 -56 -64 -16 -7 -32 -21 -35 -33 -4 -16 -18 -23 -66 -32
-42 -8 -70 -20 -89 -38 -19 -18 -29 -22 -34 -14 -12 20 -94 3 -139 -28 -34
-23 -48 -27 -99 -25 -67 3 -97 -9 -97 -37 0 -25 17 -35 36 -19 11 9 23 9 55 0
34 -10 44 -10 64 3 14 9 36 16 50 16 14 0 34 5 44 11 10 7 30 9 46 5 22 -6 25
-10 15 -16 -11 -7 -11 -11 -1 -24 7 -9 17 -13 22 -10 5 3 9 -2 9 -10 0 -12 5
-13 22 -7 33 12 32 24 -5 45 -29 17 -30 19 -12 27 29 11 57 11 50 -1 -3 -5 0
-10 8 -10 8 0 18 7 21 16 5 13 15 15 46 11 43 -5 80 19 59 40 -10 10 28 27
116 52 63 17 247 132 265 164 14 27 14 29 -9 48 -23 19 -23 20 -6 39 10 11 32
24 50 30 23 7 44 28 69 66 20 30 51 64 69 74 35 22 82 26 93 9 4 -8 -3 -9 -23
-5 -32 7 -83 -23 -83 -50 0 -8 -9 -33 -21 -56 -20 -40 -20 -41 -2 -52 17 -9
16 -10 -7 -16 -33 -8 -34 -44 -1 -48 34 -5 64 5 93 30 68 62 67 61 83 48 8 -7
21 -10 30 -6 9 3 19 -3 25 -14 14 -27 26 -25 55 8 35 39 32 85 -4 49 -10 -10
-11 -9 -6 5 9 23 -4 45 -16 27 -7 -11 -9 -10 -9 3 0 39 82 52 101 17 11 -21 0
-38 -23 -39 -12 0 -10 -28 2 -35 14 -8 42 14 34 26 -3 6 24 -6 61 -26 49 -26
79 -35 113 -35 27 0 73 -11 107 -24 54 -23 62 -23 93 -10 32 13 34 13 27 -4
-3 -9 -7 -21 -8 -26 -1 -5 23 -25 54 -45 100 -64 158 -114 158 -138 1 -13 5
-23 11 -23 13 0 40 -54 40 -80 0 -11 7 -20 15 -20 8 0 26 -20 40 -44 14 -24
32 -50 40 -56 13 -10 15 -8 16 16 l1 29 9 -32 c11 -38 26 -42 39 -10 8 20 9
19 11 -13 2 -19 2 -47 1 -62 -1 -19 3 -28 13 -28 8 0 21 -13 29 -28 19 -36 42
-56 56 -47 8 5 8 11 -1 21 -9 10 -9 14 0 14 6 0 14 -7 17 -15 4 -8 12 -15 20
-15 18 0 19 71 2 88 -16 16 -3 15 32 -3 16 -8 31 -23 35 -34 10 -31 37 -35 59
-9 15 19 17 34 13 84 -2 34 -7 66 -11 72 -3 6 -38 23 -76 38 -46 18 -72 34
-76 47 -3 11 -25 45 -48 76 -22 31 -50 74 -61 94 -11 20 -26 37 -33 37 -16 0
-82 70 -82 87 0 6 -12 21 -26 32 -24 19 -26 19 -57 2 -21 -11 -33 -27 -35 -43
-2 -14 -12 -30 -25 -35 -19 -8 -28 -2 -72 45 -27 30 -54 65 -58 78 -8 22 -14
24 -65 22 l-57 -3 4 588 c5 664 13 594 -78 637 -32 16 -54 20 -81 15 -26 -4
-48 -1 -69 10 -18 9 -36 13 -42 9 -6 -3 -29 7 -52 22 -27 17 -60 29 -92 32
-58 5 -75 16 -75 47 0 32 -62 51 -73 23 -4 -8 -6 -7 -6 4 -1 18 -68 78 -87 78
-6 0 -19 -9 -29 -20z"/>
<path d="M516 1581 c-23 -25 -17 -55 12 -59 14 -2 32 -17 44 -37 18 -31 53
-54 64 -42 3 3 0 24 -7 47 -10 32 -20 45 -41 52 -16 6 -34 21 -41 35 -13 24
-13 24 -31 4z"/>
<path d="M270 1252 c0 -26 30 -66 42 -54 6 6 4 21 -6 41 -18 34 -36 41 -36 13z"/>
<path d="M3399 1145 c-15 -8 -29 -26 -32 -41 -4 -23 1 -28 37 -45 57 -26 73
-24 91 11 16 32 12 68 -9 82 -17 12 -59 8 -87 -7z"/>
<path d="M3245 1064 c-30 -32 -31 -44 -7 -44 23 0 52 30 52 53 0 25 -17 21
-45 -9z"/>
<path d="M570 1055 c0 -64 85 -102 109 -48 16 34 2 48 -61 61 -46 9 -48 9 -48
-13z"/>
<path d="M3833 987 c-50 -24 -52 -38 -17 -90 22 -33 29 -37 54 -32 16 3 31 2
35 -4 7 -12 53 -5 70 10 6 6 1 15 -12 24 -12 9 -35 38 -50 65 -15 28 -30 50
-33 49 -3 0 -24 -10 -47 -22z"/>
<path d="M4077 844 c-16 -16 -5 -31 32 -42 71 -22 141 -10 141 23 0 11 -13 15
-54 15 -29 0 -66 3 -82 6 -16 3 -32 2 -37 -2z"/>
<path d="M4251 786 l-20 -22 45 -58 c46 -58 47 -58 89 -53 105 15 124 56 45
94 -25 11 -66 30 -91 41 l-47 21 -21 -23z"/>
<path d="M4140 755 c0 -23 22 -65 35 -65 6 0 20 6 30 14 17 12 18 18 7 40 -9
20 -19 26 -42 26 -20 0 -30 -5 -30 -15z"/>
<path d="M1370 565 c-41 -30 -85 -62 -98 -71 -13 -9 -21 -23 -18 -32 2 -9 7
-29 10 -43 10 -44 41 -43 118 3 48 29 66 44 59 51 -18 18 -12 56 9 67 24 13
26 35 5 44 -8 3 -12 12 -9 21 3 8 5 15 3 15 -2 -1 -38 -25 -79 -55z"/>
<path d="M4472 557 c-8 -10 -7 -21 3 -41 15 -28 14 -30 -20 -62 -38 -35 -38
-35 2 -108 10 -19 15 -51 14 -92 -1 -58 1 -64 28 -83 29 -21 61 -28 61 -13 0
4 20 29 45 56 30 34 49 47 60 42 22 -8 94 24 120 53 l20 23 -32 26 c-18 15
-43 47 -56 71 -20 40 -34 50 -118 92 -103 53 -112 55 -127 36z"/>
<path d="M10729 351 c-18 -17 -40 -31 -50 -31 -19 0 -25 -11 -13 -22 5 -6 31
3 133 43 26 11 20 23 -16 33 -17 5 -30 -1 -54 -23z"/>
<path d="M280 316 c0 -7 -7 -20 -16 -27 -14 -11 -18 -11 -29 4 -16 23 -49 21
-102 -4 -56 -27 -57 -44 0 -34 23 4 58 6 77 5 88 -7 120 -4 137 12 16 16 16
19 -2 38 -21 23 -65 27 -65 6z"/>
<path d="M1142 318 c-8 -8 -9 -15 -1 -25 16 -19 29 -16 29 6 0 25 -13 34 -28
19z"/>
</g>
</svg>
